<svg xmlns="http://www.w3.org/2000/svg" viewBox="0 0 284.9 338.1"><path d="M263.2 328.1l-249.7-80c-9.4-3-15.3-15.8-13-28.5 2.3-12.7 11.7-20.6 21.2-17.5l249.7 80c9.5 3 15.3 15.8 13 28.5-2.3 12.7-11.8 20.5-21.2 17.5z"/><path d="M270.4 238.5l-246 98.7c-9.3 3.7-19.1-3.4-21.9-15.9-2.8-12.5 2.5-25.7 11.8-29.4l246-98.7c9.3-3.7 19.1 3.4 21.9 15.9 2.8 12.5-2.5 25.6-11.8 29.4z"/><path d="M217.6 153l-6.9-20.6c-1.4-4.2-3.4-8.1-6-11.6-10.2-13.8-37.9-52.5-41.8-73C158.2 22.5 185.8 0 185.8 0S72 12.6 63.6 119.6 114 251.8 114 251.8c.8.4 1.5.8 2.3 1.2-1.4-5.9-8-35.6.3-42.9 0 0 19.1 14.3 25.2 4.5s9.2-10.8 6.1-26.9-19.9-39.4-7.7-60c0 0 42.4 58.5 45.1 76.2 3.2 21 11.5 26-6.1 50.2-1.3 1.8-2.8 3.3-4.5 4.7 6.8-1.9 13.3-4.8 19.3-8.5 8.8-5.5 16.8-22.3 22.6-38.1 7-19.1 7.3-39.9 1-59.2z"/></svg>