<svg xmlns="http://www.w3.org/2000/svg" data-name="Layer 1" viewBox="0 0 566.93 708.6624999999999" x="0px" y="0px"><title>larsonline icon</title><path d="M404.23,442.55l-249.69-80c-9.45-3-15.28-15.78-13-28.49h0c2.25-12.71,11.73-20.56,21.18-17.53l249.69,80c9.45,3,15.28,15.78,13,28.49h0C423.16,437.73,413.68,445.58,404.23,442.55Z"/><path d="M411.47,352.88l-246,98.68c-9.31,3.73-19.1-3.39-21.87-15.91h0c-2.78-12.52,2.52-25.69,11.83-29.43l246-98.68c9.31-3.73,19.1,3.39,21.87,15.91h0C426.07,336,420.78,349.14,411.47,352.88Z"/><path d="M358.67,267.47l-6.85-20.63a41.17,41.17,0,0,0-6-11.58c-10.23-13.78-37.86-52.47-41.76-73-4.79-25.32,22.77-47.83,22.77-47.83S213,127,204.61,234,255,366.2,255,366.2c.77.43,1.55.78,2.32,1.18-1.4-5.86-8-35.65.25-42.92,0,0,19.1,14.34,25.21,4.48s9.17-10.76,6.11-26.9S269,262.61,281.21,242c0,0,42.37,58.47,45.07,76.21,3.2,21,11.46,26-6.11,50.21a24.53,24.53,0,0,1-4.5,4.71,77.47,77.47,0,0,0,19.28-8.52c8.77-5.49,16.76-22.3,22.64-38.09A89.72,89.72,0,0,0,358.67,267.47Z"/><text x="0" y="581.93" fill="#000000" font-size="5px" font-weight="bold" font-family="'Helvetica Neue', Helvetica, Arial-Unicode, Arial, Sans-serif">Created by Lars Meiertoberens</text><text x="0" y="586.93" fill="#000000" font-size="5px" font-weight="bold" font-family="'Helvetica Neue', Helvetica, Arial-Unicode, Arial, Sans-serif">from the Noun Project</text></svg>