<?xml version="1.0" encoding="iso-8859-1"?>
<!-- Generator: Adobe Illustrator 16.0.0, SVG Export Plug-In . SVG Version: 6.00 Build 0)  -->
<!DOCTYPE svg PUBLIC "-//W3C//DTD SVG 1.1//EN" "http://www.w3.org/Graphics/SVG/1.1/DTD/svg11.dtd">
<svg version="1.1" id="Capa_1" xmlns="http://www.w3.org/2000/svg" xmlns:xlink="http://www.w3.org/1999/xlink" x="0px" y="0px"
	 width="84.517px" height="84.518px" viewBox="0 0 84.517 84.518" style="enable-background:new 0 0 84.517 84.518;"
	 xml:space="preserve">
<g>
	<path d="M61.25,55.669c0-7.974-5.207-13.201-15.448-15.57v-20.77c7.415,0.763,8.724,4.249,8.724,11.349
		c0,0.365,0.168,0.709,0.457,0.934c0.288,0.224,0.66,0.301,1.017,0.212l3.887-0.992c0.542-0.139,0.914-0.639,0.888-1.198
		c-0.442-9.722-3.152-15.699-14.972-16.656V0.787C45.802,0.352,45.45,0,45.014,0h-5.512c-0.435,0-0.787,0.353-0.787,0.787V13.02
		c-10.034,1.006-15.131,6.522-15.131,16.468c0,7.891,5.097,13.095,15.131,15.497v20.891c-9.191-0.669-9.198-4.301-9.198-11.396
		c0-0.354-0.159-0.689-0.434-0.914c-0.275-0.226-0.637-0.315-0.983-0.242l-3.888,0.793c-0.568,0.115-0.968,0.625-0.944,1.205
		c0.38,9.512,1.74,15.983,15.447,16.887V83.73c0,0.436,0.352,0.787,0.787,0.787h5.512c0.436,0,0.788-0.353,0.788-0.787V72.136
		C56.046,71.129,61.25,65.613,61.25,55.669z M54.921,55.669c0,5.983-2.928,9.241-9.119,10.089V46.806
		C51.849,48.863,54.921,51.83,54.921,55.669z M38.715,38.242c-5.838-2.052-8.802-4.982-8.802-8.754
		c0-5.973,2.825-9.229,8.802-10.084V38.242z"/>
</g>
<g>
</g>
<g>
</g>
<g>
</g>
<g>
</g>
<g>
</g>
<g>
</g>
<g>
</g>
<g>
</g>
<g>
</g>
<g>
</g>
<g>
</g>
<g>
</g>
<g>
</g>
<g>
</g>
<g>
</g>
</svg>
