<svg height="512pt" viewBox="-61 0 512 512" width="512pt" xmlns="http://www.w3.org/2000/svg"><path d="m120 0h150v61h-150zm0 0"/><path d="m195 196c-27.882812 0-51.164062 19.191406-57.871094 45h115.742188c-6.707032-25.808594-29.988282-45-57.871094-45zm0 0"/><path d="m300 0v91h-47.128906c-6.707032 25.808594-29.988282 45-57.871094 45s-51.164062-19.191406-57.871094-45h-47.128906v-91h-90v241h106.515625c7.191406-42.476562 43.992187-75 88.484375-75s81.292969 32.523438 88.484375 75h106.515625v-241zm0 0"/><path d="m195 106c10.957031 0 20.152344-6.199219 25.386719-15h-50.773438c5.234375 8.800781 14.429688 15 25.386719 15zm0 0"/><path d="m195 316c27.882812 0 51.164062-19.191406 57.871094-45h-115.742188c6.707032 25.808594 29.988282 45 57.871094 45zm0 0"/><path d="m195 346c-44.492188 0-81.292969-32.523438-88.484375-75h-106.515625v241h90v-91h47.128906c6.707032-25.808594 29.988282-45 57.871094-45s51.164062 19.191406 57.871094 45h47.128906v91h90v-241h-106.515625c-7.191406 42.476562-43.992187 75-88.484375 75zm0 0"/><path d="m195 406c-10.957031 0-20.152344 6.199219-25.386719 15h50.773438c-5.234375-8.800781-14.429688-15-25.386719-15zm0 0"/><path d="m120 451h150v61h-150zm0 0"/></svg>