<svg xmlns:dc="http://purl.org/dc/elements/1.1/" xmlns:cc="http://creativecommons.org/ns#" xmlns:rdf="http://www.w3.org/1999/02/22-rdf-syntax-ns#" xmlns:svg="http://www.w3.org/2000/svg" xmlns="http://www.w3.org/2000/svg" xmlns:sodipodi="http://sodipodi.sourceforge.net/DTD/sodipodi-0.dtd" xmlns:inkscape="http://www.inkscape.org/namespaces/inkscape" version="1.1" x="0px" y="0px" viewBox="0 0 100 125"><g transform="translate(0,-952.36218)"><path d="m 9.000002,978.36217 39.999996,0 0,16.0937 c -3.9332,0.4985 -6.999996,3.87273 -6.999996,7.93753 0,4.0648 3.066796,7.4077 6.999996,7.9062 l 0,16.0626 -39.999996,0 0,-11 c 4,0 8,0 12,0 0,-2.3646 0,-4.7292 0,-7.0938 2.83551,-0.4719 5,-2.91 5,-5.875 0,-2.9649 -2.16449,-5.46203 -5,-5.93753 0,-2.3646 0,-4.7291 0,-7.0937 -4,0 -8,0 -12,0 z m 41.999996,0 40,0 0,11 c -4,0 -8,0 -12,0 0,2.3646 0,4.7291 0,7.0937 -2.83551,0.4755 -5,2.97263 -5,5.93753 0,2.965 2.16449,5.4031 5,5.875 0,2.3646 0,4.7292 0,7.0938 4,0 8,0 12,0 l 0,11 -40,0 0,-16.0626 c 3.9332,-0.4985 7,-3.8414 7,-7.9062 0,-4.0648 -3.0668,-7.43903 -7,-7.93753 z m -41.999996,13 10,0 0,22.00003 -10,0 0,-5 2,0 0,-12.00003 -2,0 z m 71.999996,0 10,0 0,5 -2,0 0,12.00003 2,0 0,5 -10,0 z m -32,5.125 0,11.81243 c -2.84804,-0.4711 -5,-2.9199 -5,-5.9062 0,-2.9863 2.15196,-5.43513 5,-5.90624 z m 2,0 c 2.84804,0.4711 5,2.91993 5,5.90623 0,2.9863 -2.15196,5.4351 -5,5.9062 z m -29.999996,2.03123 c 1.72778,0.4462 3,2.0018 3,3.875 0,1.874 -1.27112,3.4031 -3,3.8438 z m 57.999996,0 0,7.7188 c -1.72888,-0.4406 -3,-1.9698 -3,-3.8438 0,-1.8732 1.27222,-3.4288 3,-3.875 z" style="text-indent:0;text-transform:none;direction:ltr;block-progression:tb;baseline-shift:baseline;color:#000000;enable-background:accumulate;" fill="#000000" fill-opacity="1" stroke="none" marker="none" visibility="visible" display="inline" overflow="visible"/></g><text x="0" y="115" fill="#000000" font-size="5px" font-weight="bold" font-family="'Helvetica Neue', Helvetica, Arial-Unicode, Arial, Sans-serif">Created by zidney</text><text x="0" y="120" fill="#000000" font-size="5px" font-weight="bold" font-family="'Helvetica Neue', Helvetica, Arial-Unicode, Arial, Sans-serif">from the Noun Project</text></svg>