<svg xmlns="http://www.w3.org/2000/svg" viewBox="0 0 82 48"><path d="M0 .038h40v16.1c-3.9.5-7 3.9-7 7.9 0 4.1 3.1 7.4 7 7.9v16.1H0v-11h12v-7.1c2.8-.5 5-2.9 5-5.9 0-3-2.2-5.5-5-5.9v-7.1H0v-11zm42 0h40v11H70v7.1c-2.8.5-5 3-5 5.9 0 3 2.2 5.4 5 5.9v7.1h12v11H42v-16.1c3.9-.5 7-3.8 7-7.9s-3.1-7.4-7-7.9V.038zm-42 13h10v22H0v-5h2v-12H0v-5zm72 0h10v5h-2v12h2v5H72v-22zm-32 5.1v11.8c-2.8-.5-5-2.9-5-5.9 0-3 2.2-5.4 5-5.9zm2 0c2.8.5 5 2.9 5 5.9s-2.2 5.4-5 5.9v-11.8zm-30 2c1.7.4 3 2 3 3.9s-1.3 3.4-3 3.8v-7.7zm58 0v7.7c-1.7-.4-3-2-3-3.8 0-1.9 1.3-3.4 3-3.9z"/></svg>