<svg xmlns="http://www.w3.org/2000/svg" xmlns:xlink="http://www.w3.org/1999/xlink" version="1.1" x="0px" y="0px" viewBox="0 0 1024 1280" style="enable-background:new 0 0 1024 1024;" xml:space="preserve"><g><rect x="491" y="97" width="40" height="136"/><rect x="306" y="157" width="40" height="136"/><rect x="677" y="159" width="40" height="136"/><rect x="93" y="368" width="838" height="40"/><path d="M93,442v40h32.6c3.6,66.9,24.6,131.5,61.1,188c35,54.1,82.8,98.5,138.9,129.4l-77.3,103.1l32,24l82-109.4   c46.9,19.6,98.4,30,149.9,30c52.1,0,102.3-10,149.5-29.9l81.9,109.3l32-24l-77.3-103.1c56.2-30.9,104-75.4,139-129.6   c36.4-56.4,57.3-120.9,61-187.8H931v-40H93z M612,564H414v-40h198V564z"/></g><text x="0" y="1039" fill="#000000" font-size="5px" font-weight="bold" font-family="'Helvetica Neue', Helvetica, Arial-Unicode, Arial, Sans-serif">Created by IconPai</text><text x="0" y="1044" fill="#000000" font-size="5px" font-weight="bold" font-family="'Helvetica Neue', Helvetica, Arial-Unicode, Arial, Sans-serif">from the Noun Project</text></svg>