<svg xmlns:x="http://ns.adobe.com/Extensibility/1.0/" xmlns:i="http://ns.adobe.com/AdobeIllustrator/10.0/" xmlns:graph="http://ns.adobe.com/Graphs/1.0/" xmlns="http://www.w3.org/2000/svg" xmlns:xlink="http://www.w3.org/1999/xlink" xmlns:a="http://ns.adobe.com/AdobeSVGViewerExtensions/3.0/" version="1.1" baseProfile="tiny" x="0px" y="0px" viewBox="0 0 256.487 339.9125" overflow="scroll" xml:space="preserve"><path d="M227.549,23.462H34.417c-8.734,0-15.839,7.105-15.839,15.839v193.132c0,8.733,7.105,15.839,15.839,15.839h193.133  c8.734,0,15.838-7.105,15.838-15.839V39.301C243.387,30.567,236.284,23.462,227.549,23.462z M232.25,232.315c0,2.209-1.791,4-4,4  H33.714c-2.209,0-4-1.791-4-4V39.418c0-2.209,1.791-4,4-4H228.25c2.209,0,4,1.791,4,4V232.315z"/><g><path d="M151.065,92.76c-2.344-1.417-5.059-2.374-8.141-2.869c-3.084-0.491-6.29-0.739-9.62-0.739h-22.57v39.59h22.57   c3.33,0,6.536-0.246,9.62-0.74c3.082-0.491,5.797-1.448,8.141-2.867c2.342-1.417,4.221-3.423,5.641-6.013   c1.416-2.59,2.127-5.981,2.127-10.175c0-4.191-0.711-7.585-2.127-10.176C155.286,96.182,153.407,94.18,151.065,92.76z"/><path d="M37.714,43.418v184.897H224.25V43.418H37.714z M184.456,124.58c-1.664,5.119-4.318,9.652-7.955,13.598   c-3.639,3.948-8.355,7.123-14.15,9.527c-5.801,2.405-12.83,3.606-21.09,3.606h-30.526v47.361H81.689V66.583h59.571   c8.26,0,15.289,1.202,21.09,3.607c5.795,2.406,10.512,5.582,14.15,9.528c3.637,3.948,6.291,8.449,7.955,13.504   c1.664,5.059,2.498,10.3,2.498,15.726C186.954,114.251,186.12,119.463,184.456,124.58z"/></g><text x="0" y="286.93" fill="#000000" font-size="5px" font-weight="bold" font-family="'Helvetica Neue', Helvetica, Arial-Unicode, Arial, Sans-serif">Created by Margot Lnrs</text><text x="0" y="291.93" fill="#000000" font-size="5px" font-weight="bold" font-family="'Helvetica Neue', Helvetica, Arial-Unicode, Arial, Sans-serif">from the Noun Project</text></svg>