<svg xmlns="http://www.w3.org/2000/svg" viewBox="0 0 224.8 224.8"><path d="M209 0H15.8C7.1 0 0 7.1 0 15.8V209c0 8.7 7.1 15.8 15.8 15.8H209c8.7 0 15.8-7.1 15.8-15.8V15.8C224.8 7.1 217.7 0 209 0zm4.7 208.9c0 2.2-1.8 4-4 4H15.1c-2.2 0-4-1.8-4-4V16c0-2.2 1.8-4 4-4h194.5c2.2 0 4 1.8 4 4v192.9z"/><path d="M132.5 69.3c-2.3-1.4-5.1-2.4-8.1-2.9-3.1-.5-6.3-.7-9.6-.7H92.2v39.6h22.6c3.3 0 6.5-.2 9.6-.7 3.1-.5 5.8-1.4 8.1-2.9 2.3-1.4 4.2-3.4 5.6-6 1.4-2.6 2.1-6 2.1-10.2 0-4.2-.7-7.6-2.1-10.2-1.4-2.6-3.3-4.6-5.6-6z"/><path d="M19.1 20v184.9h186.5V20H19.1zm146.8 81.1c-1.7 5.1-4.3 9.7-8 13.6-3.6 3.9-8.4 7.1-14.1 9.5-5.8 2.4-12.8 3.6-21.1 3.6H92.2v47.4h-29V43.1h59.6c8.3 0 15.3 1.2 21.1 3.6 5.8 2.4 10.5 5.6 14.1 9.5 3.6 3.9 6.3 8.4 8 13.5 1.7 5.1 2.5 10.3 2.5 15.7-.1 5.4-1 10.6-2.6 15.7z"/></svg>