<svg xmlns="http://www.w3.org/2000/svg" xmlns:xlink="http://www.w3.org/1999/xlink" version="1.1" x="0px" y="0px" viewBox="0 0 64 80" enable-background="new 0 0 64 64" xml:space="preserve"><g><path d="M32,3c-10.77,0-19.5,8.66-19.5,19.33C12.5,42.38,32,61,32,61s19.5-18.62,19.5-38.67C51.5,11.66,42.77,3,32,3z M32,37.63   c-8.63,0-15.63-7-15.63-15.63S23.37,6.37,32,6.37s15.63,7,15.63,15.63S40.63,37.63,32,37.63z"/></g><g><g><path d="M24.277,18.089c0,0.815,0.534,1.501,1.289,1.734c0.131,2.03,1.212,3.882,2.912,4.982l-1.474,9.875    c-0.041,0.273,0.147,0.528,0.42,0.568c0.265,0.041,0.527-0.146,0.568-0.42l0.617-4.136h6.779l0.617,4.136    c0.037,0.248,0.25,0.426,0.493,0.426c0.024,0,0.05-0.002,0.075-0.006c0.272-0.04,0.461-0.295,0.42-0.568l-1.474-9.876    c1.7-1.103,2.779-2.95,2.912-4.978c0.749-0.228,1.289-0.917,1.289-1.738c0-1.014-0.817-1.838-1.822-1.838H26.1    C25.095,16.251,24.277,17.075,24.277,18.089z M28.76,29.693l0.651-4.366c0.021,0.009,0.042,0.015,0.063,0.023    c0.074,0.032,0.149,0.057,0.225,0.085c0.157,0.061,0.315,0.116,0.477,0.164c0.116,0.034,0.232,0.063,0.35,0.091    c0.113,0.026,0.228,0.049,0.342,0.069c0.147,0.026,0.294,0.052,0.443,0.067c0.055,0.006,0.109,0.007,0.165,0.011    c0.175,0.015,0.349,0.035,0.525,0.035s0.353-0.021,0.528-0.035c0.054-0.004,0.108-0.005,0.162-0.011    c0.149-0.016,0.297-0.041,0.444-0.068c0.114-0.02,0.227-0.042,0.339-0.067c0.118-0.028,0.235-0.058,0.352-0.092    c0.161-0.047,0.318-0.104,0.475-0.163c0.074-0.029,0.15-0.054,0.225-0.085c0.021-0.009,0.043-0.015,0.064-0.024l0.651,4.366H28.76    z M34.728,24.134c-1.235,0.726-2.76,0.906-4.14,0.544c-0.23-0.061-0.456-0.137-0.677-0.227c-0.22-0.091-0.433-0.196-0.639-0.317    c-0.001,0-0.002,0-0.002-0.001c-0.001,0-0.002,0-0.003-0.001c-1.538-0.88-2.544-2.466-2.705-4.22h10.875    C37.276,21.665,36.27,23.252,34.728,24.134z M38.723,18.089c0,0.438-0.339,0.799-0.774,0.823H26.058    c-0.438-0.022-0.78-0.383-0.78-0.823c0-0.462,0.369-0.838,0.822-0.838H37.9C38.346,17.251,38.723,17.635,38.723,18.089z"/><path d="M31.072,13.588c0,0.276,0.224,0.5,0.5,0.5s0.5-0.224,0.5-0.5c0-0.433,0.14-0.627,0.333-0.896    c0.233-0.323,0.522-0.726,0.522-1.481c0-0.757-0.29-1.159-0.522-1.482c-0.193-0.27-0.333-0.463-0.333-0.896    c0-0.276-0.224-0.5-0.5-0.5s-0.5,0.224-0.5,0.5c0,0.755,0.289,1.156,0.521,1.479c0.194,0.27,0.334,0.464,0.334,0.898    c0,0.434-0.14,0.628-0.334,0.897C31.361,12.432,31.072,12.833,31.072,13.588z"/><path d="M34.893,13.588c0,0.276,0.224,0.5,0.5,0.5s0.5-0.224,0.5-0.5c0-0.433,0.14-0.627,0.333-0.896    c0.231-0.323,0.521-0.726,0.521-1.481c0-0.757-0.289-1.159-0.521-1.482c-0.193-0.269-0.333-0.463-0.333-0.896    c0-0.276-0.224-0.5-0.5-0.5s-0.5,0.224-0.5,0.5c0,0.754,0.288,1.156,0.521,1.479c0.193,0.27,0.333,0.465,0.333,0.899    c0,0.434-0.14,0.629-0.333,0.897C35.181,12.432,34.893,12.833,34.893,13.588z"/><path d="M27.254,13.588c0,0.276,0.224,0.5,0.5,0.5s0.5-0.224,0.5-0.5c0-0.433,0.14-0.627,0.333-0.896    c0.231-0.323,0.521-0.726,0.521-1.481c0-0.757-0.289-1.159-0.521-1.482c-0.193-0.269-0.333-0.463-0.333-0.896    c0-0.276-0.224-0.5-0.5-0.5s-0.5,0.224-0.5,0.5c0,0.754,0.288,1.156,0.521,1.479c0.193,0.27,0.333,0.465,0.333,0.899    c0,0.434-0.14,0.629-0.333,0.897C27.542,12.432,27.254,12.833,27.254,13.588z"/></g></g><text x="0" y="79" fill="#000000" font-size="5px" font-weight="bold" font-family="'Helvetica Neue', Helvetica, Arial-Unicode, Arial, Sans-serif">Created by Denicon</text><text x="0" y="84" fill="#000000" font-size="5px" font-weight="bold" font-family="'Helvetica Neue', Helvetica, Arial-Unicode, Arial, Sans-serif">from the Noun Project</text></svg>