<svg xmlns="http://www.w3.org/2000/svg" viewBox="0 0 39 58"><path d="M19.5 0C8.7 0 0 8.7 0 19.3 0 39.4 19.5 58 19.5 58S39 39.4 39 19.3C39 8.7 30.3 0 19.5 0zm0 34.6c-8.6 0-15.6-7-15.6-15.6s7-15.6 15.6-15.6 15.6 7 15.6 15.6-7 15.6-15.6 15.6z"/><path d="M11.8 15.1c0 .8.5 1.5 1.3 1.7.1 2 1.2 3.9 2.9 5l-1.5 9.9c0 .3.1.5.4.6.3 0 .5-.1.6-.4l.6-4.1h6.8l.6 4.1c0 .2.3.4.5.4h.1c.3 0 .5-.3.4-.6L23 21.8c1.7-1.1 2.8-3 2.9-5 .7-.2 1.3-.9 1.3-1.7 0-1-.8-1.8-1.8-1.8H13.6c-1 0-1.8.8-1.8 1.8zm4.5 11.6l.7-4.4h.1c.1 0 .1.1.2.1.2.1.3.1.5.2.1 0 .2.1.4.1.1 0 .2 0 .3.1.1 0 .3.1.4.1h1.4c.1 0 .3 0 .4-.1.1 0 .2 0 .3-.1.1 0 .2-.1.4-.1s.3-.1.5-.2c.1 0 .2-.1.2-.1h.1l.7 4.4h-6.6zm5.9-5.6c-1.2.7-2.8.9-4.1.5-.2-.1-.5-.1-.7-.2l-.6-.3c-1.5-.9-2.5-2.5-2.7-4.2H25c-.2 1.8-1.2 3.4-2.8 4.2zm4-6c0 .4-.3.8-.8.8H13.6c-.4 0-.8-.4-.8-.8 0-.5.4-.8.8-.8h11.8c.4 0 .8.3.8.8zM18.6 10.6c0 .3.2.5.5.5s.5-.2.5-.5c0-.4.1-.6.3-.9.2-.3.5-.7.5-1.5s-.3-1.2-.5-1.5c-.2-.3-.3-.5-.3-.9 0-.3-.2-.5-.5-.5s-.5.2-.5.5c0 .8.3 1.2.5 1.5.2.3.3.5.3.9s-.1.6-.3.9c-.2.3-.5.7-.5 1.5zM22.4 10.6c0 .3.2.5.5.5s.5-.2.5-.5c0-.4.1-.6.3-.9.3-.3.5-.7.5-1.5s-.3-1.2-.5-1.5c-.2-.3-.3-.5-.3-.9 0-.3-.2-.5-.5-.5s-.5.2-.5.5c0 .8.3 1.2.5 1.5.2.3.3.5.3.9s-.1.6-.3.9c-.2.3-.5.7-.5 1.5zM14.8 10.6c0 .3.2.5.5.5s.5-.2.5-.5c0-.4.1-.6.3-.9.2-.3.5-.7.5-1.5s-.3-1.2-.5-1.5c-.2-.3-.3-.5-.3-.9 0-.3-.2-.5-.5-.5s-.5.2-.5.5c0 .8.3 1.2.5 1.5.2.3.3.5.3.9s-.1.6-.3.9c-.3.3-.5.7-.5 1.5z"/></svg>