<svg id="Layer_1" enable-background="new 0 0 512 512" height="512" viewBox="0 0 512 512" width="512" xmlns="http://www.w3.org/2000/svg"><g><path d="m196.157 285.823c0-25.355-20.627-45.982-45.982-45.982s-45.982 20.627-45.982 45.982v60.982h91.965v-60.982z"/><path d="m0 103.22v29.729h300.349v-29.729l-150.174-103.161z"/><path d="m0 511.941h30v-165.136h44.192v-60.982c0-41.897 34.085-75.982 75.982-75.982s75.982 34.085 75.982 75.982v60.982h44.192v165.136h30v-348.992h-300.348z"/><path d="m196.157 391.931h-91.965v-45.126h-30v165.136h30v-29.884h91.965v29.884h30v-165.136h-30zm0 60.126h-91.965v-30.126h91.965z"/><path d="m447.592 419.492-117.243-139.523v143.704l74.173 88.268h107.478v-92.449z"/></g></svg>