<svg xmlns="http://www.w3.org/2000/svg" viewBox="0 0 94.7 77.3"><path d="M31.8 66.4c-.8-3.3-1.7-7-2.1-10.3-.6-5.9-.1-9.7.4-11.7 1.2-1.9 4.3-5.2 6.3-6.3 1.2.9 2.6 1.5 4.2 1.5 3.7 0 6.7-3 6.7-6.7 0-1.4-.5-2.8-1.2-3.9 2.8-1.8 4.7-4.9 4.7-8.5 0-4.2-2.5-7.7-6.2-9.3.1-.3.1-.7.1-1.1 0-4.3-3.5-7.7-7.7-7.7-1.4 0-2.6.4-3.8 1C31.4 1.3 28.7 0 25.7 0c-3.6 0-6.8 1.9-8.6 4.8-1.2-.8-2.7-1.3-4.2-1.3-4.3 0-7.7 3.5-7.7 7.7 0 1 .2 2 .6 2.9C2.4 15.7 0 19.2 0 23.2c0 3.4 1.7 6.4 4.3 8.2-.1.6-.2 1.2-.2 1.8 0 4.3 3.5 7.7 7.7 7.7 1.6 0 3.1-.5 4.3-1.3 1.7 1.5 3.8 3.5 4.9 4.9.8 2.2 2.4 8 .7 16.4-2.3 10.9-4.3 16.4-1.6 16.4h8c-.7-1.1-1.1-2.5-1.1-3.9-.2-3.1 1.9-5.9 4.8-7zM23.6 42c-.3.1-.6.2-1 .3-1.4-1.1-3.5-2.8-4.8-4.5.5-.7.9-1.4 1.1-2.2.5-.1 1-.3 1.5-.5.8.5 1.7.9 2.6 1.2.5 2.3.9 4.9.6 5.7zm3.5-.3c-.4-1.3-.9-3.1-1.2-4.8.4 0 .7.1 1.1.1 2.4 0 4.5-.6 6.4-1.7l.9.9c-1.9 1.8-4.9 4.5-7 5.6 0-.1-.1-.1-.2-.1zM93.9 25.2l-11.1-8.5c-.8-.6-2-.6-2.8 0l-11 8.5c-.6.4-.9 1.1-.9 1.8v17.5h-2.6c-3.2 0-6.1 1.5-7.9 4.1L43 68.9c-.4.5-1 .8-1.7.8h-6.8c-2.1 0-3.8 1.7-3.8 3.8 0 2.1 1.7 3.8 3.8 3.8h6.8c3.1 0 6.1-1.5 7.9-4.1L63.7 53c.4-.5 1-.8 1.7-.8H68v22.7c0 1.3 1 2.3 2.3 2.3s2.3-1 2.3-2.3v-2.8h17.5v2.8c0 1.3 1.1 2.3 2.3 2.3 1.3 0 2.3-1 2.3-2.3V27.1c.1-.8-.2-1.4-.8-1.9zm-18.7 6.7c0-1.4 1.2-2.6 2.6-2.6h7.4c1.4 0 2.6 1.2 2.6 2.6v7.7c0 1.4-1.2 2.6-2.6 2.6h-7.4c-1.4 0-2.6-1.2-2.6-2.6v-7.7zm15 35.6H72.7v-5.2h17.5v5.2zm0-9.8H72.7v-5.2h17.5v5.2z"/></svg>