<svg xmlns="http://www.w3.org/2000/svg" data-name="Layer 1" viewBox="0 0 100 125" x="0px" y="0px"><title>113all</title><path d="M89.45,27.83a3,3,0,0,0-3-2.47H13.62a3,3,0,0,0-3.07,2.41L2.85,67.29a3,3,0,0,0,2.94,3.57H18.27l.23,1.31a3,3,0,0,0,3,2.47H94.21a3,3,0,0,0,3-3.53Zm-80,37,4.06-20.8,3.7,20.8ZM75.18,51.55H32.77v-6h42.4Z"/><text x="0" y="115" fill="#000000" font-size="5px" font-weight="bold" font-family="'Helvetica Neue', Helvetica, Arial-Unicode, Arial, Sans-serif">Created by Ahock</text><text x="0" y="120" fill="#000000" font-size="5px" font-weight="bold" font-family="'Helvetica Neue', Helvetica, Arial-Unicode, Arial, Sans-serif">from the Noun Project</text></svg>