<svg xmlns="http://www.w3.org/2000/svg" viewBox="0 0 590 578.9"><path d="M199.3 127.2c7.8 1.1 14.6 6.6 16.9 14.7l47.9 165.9c7.4 25.9-32 37.1-39.3 11.2l-44-152.4h-14c17.2 66.3 34.5 132.5 51.7 198.8h-35.1V540c0 27-41.1 27-41.1 0V365.4h-19.6V540c0 27-41.1 27-41.1 0V365.4H46.5C63.7 299.1 81 232.9 98.2 166.6H84.3L40.3 319C32.9 344.9-6.5 333.6.9 307.8l47.9-165.9c2.3-8.1 9.1-13.6 16.9-14.7h133.6zM328.5 0v578.9h-41.1V0h41.1zm220.7 183.2h-11.4v174.9h-10.5v182c0 27-41.1 27-41.1 0v-182h-19.6v182c0 27-41.1 27-41.1 0v-182H415V183.2h-11v126.7c0 27-41.1 27-41.1 0 0-44.7.5-89.5.5-134.1 0-29.2 23.9-53 53-53h120c37.4 0 53.6 30.5 53.6 64.4V310c0 27-41.1 27-41.1 0-.1-27.5.3-126.8.3-126.8zM476.4.8c29.2 0 52.8 23.6 52.8 52.8s-23.7 52.8-52.8 52.8c-29.2 0-52.8-23.7-52.8-52.8S447.2.8 476.4.8zM132.5 7c29.2 0 52.8 23.6 52.8 52.8s-23.6 52.8-52.8 52.8S79.7 89 79.7 59.8 103.4 7 132.5 7z" fill-rule="evenodd" clip-rule="evenodd"/></svg>