<svg xmlns="http://www.w3.org/2000/svg" xmlns:xlink="http://www.w3.org/1999/xlink" xml:space="preserve" version="1.1" style="shape-rendering:geometricPrecision;text-rendering:geometricPrecision;image-rendering:optimizeQuality;" viewBox="0 0 589.96 723.6125" x="0px" y="0px" fill-rule="evenodd" clip-rule="evenodd"><defs><style type="text/css">
   
    .fil0 {fill:black}
   
  </style></defs><g><path class="fil0" d="M199.34 127.2c7.81,1.06 14.64,6.6 16.95,14.66l47.87 165.95c7.4,25.89 -31.97,37.12 -39.35,11.24l-43.98 -152.44 -13.96 0c17.24,66.26 34.48,132.52 51.72,198.77l-35.1 0 0 174.64c0,27.05 -41.13,27.05 -41.13,0l0 -174.64 -19.64 0 0 174.64c0,27.05 -41.12,27.05 -41.12,0l0 -174.64 -35.11 0c17.25,-66.25 34.51,-132.5 51.72,-198.77l-13.95 0 -43.98 152.44c-7.39,25.88 -46.75,14.65 -39.36,-11.24l47.88 -165.95c2.3,-8.06 9.13,-13.6 16.94,-14.66l133.6 0zm129.13 -127.2l0 578.89 -41.13 0 0 -578.89 41.13 0zm220.74 183.17l-11.36 0 0 174.89 -10.51 0 0 181.96c0,27.05 -41.13,27.05 -41.13,0l0 -181.96 -19.63 0 0 181.96c0,27.05 -41.13,27.05 -41.13,0l0 -181.96 -10.51 0 0 -174.89 -10.98 0c0.03,42.24 0,84.47 0,126.71 0,27.05 -41.13,27.05 -41.13,0 0,-44.7 0.55,-89.52 0.55,-134.11 0,-29.17 23.85,-53.04 53.03,-53.04l119.97 0c37.37,0 53.58,30.47 53.58,64.37l0 122.78c0,27.05 -41.13,27.05 -41.13,0 0,-27.34 0.38,-126.71 0.38,-126.71zm-72.81 -182.36c29.17,0 52.82,23.65 52.82,52.83 0,29.18 -23.65,52.83 -52.82,52.83 -29.18,0 -52.83,-23.65 -52.83,-52.83 0,-29.18 23.65,-52.83 52.83,-52.83zm-343.86 6.15c29.18,0 52.83,23.65 52.83,52.83 0,29.18 -23.65,52.83 -52.83,52.83 -29.18,0 -52.83,-23.65 -52.83,-52.83 0,-29.18 23.65,-52.83 52.83,-52.83z"/></g><text x="0" y="593.89" fill="#000000" font-size="5px" font-weight="bold" font-family="'Helvetica Neue', Helvetica, Arial-Unicode, Arial, Sans-serif">Created by emka angelina</text><text x="0" y="598.89" fill="#000000" font-size="5px" font-weight="bold" font-family="'Helvetica Neue', Helvetica, Arial-Unicode, Arial, Sans-serif">from the Noun Project</text></svg>