<svg version="1.1" id="Layer_1" xmlns="http://www.w3.org/2000/svg" x="0" y="0" viewBox="0 0 65.9 48.6" xml:space="preserve"><style>.st0{fill:none}</style><path class="st0" d="M50.4 22.4v6.7c0 1.7 1.3 3 3 3h12.5v-1H54.4c-1.7 0-3-1.1-3-2.5V23c0-1.4 1.3-2.5 3-2.5h11.5v-1H53.4c-1.6-.1-3 1.2-3 2.9zM14.4 45.4h7.3v.9h-7.3zM4.4 45.4h7.3v.9H4.4zM4.4 2.4h7.3v.9H4.4zM24.4 45.4h7.3v.9h-7.3z"/><path class="st0" d="M59 26.6c1.4 0 2.6-1.2 2.6-2.6s-1.2-2.6-2.6-2.6-2.6 1.2-2.6 2.6 1.2 2.6 2.6 2.6zm0-3.3c.5 0 .9.4.9.9s-.4.9-.9.9-.9-.4-.9-.9c.1-.6.4-.9.9-.9zM24.4 2.4h7.3v.9h-7.3zM14.4 2.4h7.3v.9h-7.3zM54.4 45.4h7.3v.9h-7.3zM54.4 2.4h7.3v.9h-7.3zM44.4 45.4h7.3v.9h-7.3zM44.4 2.4h7.3v.9h-7.3zM34.4 45.4h7.3v.9h-7.3zM34.4 2.4h7.3v.9h-7.3z"/><path d="M24.7 17.9c0 .7.2 1.3.6 1.7.4.4 1.1.7 1.9 1.1v-5.4c-.8.2-1.4.5-1.8.9s-.7.9-.7 1.7zM29 24.8v6.1c1-.2 1.7-.6 2.2-1.2.5-.6.8-1.2.8-2s-.2-1.4-.8-1.9c-.5-.3-1.2-.7-2.2-1z"/><path d="M62.9 0H3C1.3 0 0 1.3 0 3v42.6c0 1.7 1.3 3 3 3h59.9c1.7 0 3-1.3 3-3V30.4H53.4c-1.7 0-3-1.3-3-3v-6.7c0-1.7 1.3-3 3-3h12.5V3c0-1.7-1.3-3-3-3zm-8.5 45.4h7.3v.9h-7.3v-.9zm-30-43h7.3v.9h-7.3v-.9zm-10 0h7.3v.9h-7.3v-.9zm-2.6 44H4.5v-.9h7.3v.9zm0-43H4.5v-.9h7.3v.9zm10 43h-7.3v-.9h7.3v.9zm10 0h-7.3v-.9h7.3v.9zm.7-13.7c-1 .6-2.1 1-3.5 1.1v3.5c0 .6 0 1-.1 1.2s-.3.4-.7.4c-.3 0-.6-.1-.7-.3-.1-.2-.2-.5-.2-1v-3.8c-1.1-.1-2.1-.4-2.9-.8-.8-.4-1.5-.9-2.1-1.5s-1-1.2-1.2-1.8-.4-1.2-.4-1.9c0-.4.2-.9.5-1.2s.8-.5 1.3-.5c.4 0 .8.1 1.1.3s.5.5.6.8c.2.8.5 1.3.7 1.8.2.4.5.8.9 1.1s.9.6 1.5.8v-6.6c-1.2-.3-2.3-.7-3.2-1.2-.9-.4-1.5-1.1-2.1-1.8-.5-.8-.8-1.8-.8-3 0-1.6.5-2.9 1.5-4 1-1 2.5-1.6 4.5-1.8V11c0-.8.3-1.2.9-1.2.6 0 .9.4.9 1.2v1.5c1 .1 1.9.3 2.6.6.7.3 1.3.8 1.9 1.4.4.5.8 1 1 1.5.2.5.3 1 .3 1.4 0 .5-.2.9-.5 1.2-.3.3-.8.5-1.2.5-.9 0-1.5-.5-1.8-1.5-.3-1.2-1.1-2-2.3-2.3v5.8c1.2.3 2.1.6 2.8.9.7.2 1.3.6 1.9 1.2.6.6 1 1.2 1.3 1.9.3.7.5 1.5.5 2.3 0 1.1-.2 2.1-.8 3-.5.9-1.3 1.6-2.2 2.3zm9.3 13.7h-7.3v-.9h7.3v.9zm0-43h-7.3v-.9h7.3v.9zm10 42v.9h-7.3v-.9h7.3zm0-42h-7.3v-.9h7.3v.9zm10 0h-7.3v-.9h7.3v.9z"/><path d="M51.4 21.2v5.6c0 1.4 1.3 2.5 3 2.5h11.5V18.7H54.4c-1.6 0-3 1.1-3 2.5zm7.6.2c1.4 0 2.6 1.2 2.6 2.6s-1.2 2.6-2.6 2.6-2.6-1.2-2.6-2.6 1.2-2.6 2.6-2.6z"/><circle cx="59" cy="24.1" r=".9"/></svg>