<svg xmlns="http://www.w3.org/2000/svg" xmlns:xlink="http://www.w3.org/1999/xlink" version="1.1" x="0px" y="0px" viewBox="0 0 100 125" enable-background="new 0 0 100 100" xml:space="preserve"><path fill="none" d="M67.3,48.1v6.7c0,1.7,1.3,3,3,3h12.5v-1H71.3c-1.7,0-3-1.1-3-2.5v-5.6c0-1.4,1.3-2.5,3-2.5h11.5v-1H70.3  C68.7,45.1,67.3,46.4,67.3,48.1z"/><rect x="31.3" y="71.1" fill="none" width="7.3" height="0.9"/><rect x="21.3" y="71.1" fill="none" width="7.3" height="0.9"/><rect x="21.3" y="28.1" fill="none" width="7.3" height="0.9"/><rect x="41.3" y="71.1" fill="none" width="7.3" height="0.9"/><path fill="none" d="M75.9,52.3c1.4,0,2.6-1.2,2.6-2.6s-1.2-2.6-2.6-2.6c-1.4,0-2.6,1.2-2.6,2.6S74.5,52.3,75.9,52.3z M75.9,49  c0.5,0,0.9,0.4,0.9,0.9c0,0.5-0.4,0.9-0.9,0.9c-0.5,0-0.9-0.4-0.9-0.9C75.1,49.3,75.4,49,75.9,49z"/><rect x="41.3" y="28.1" fill="none" width="7.3" height="0.9"/><rect x="31.3" y="28.1" fill="none" width="7.3" height="0.9"/><rect x="71.3" y="71.1" fill="none" width="7.3" height="0.9"/><rect x="71.3" y="28.1" fill="none" width="7.3" height="0.9"/><rect x="61.3" y="71.1" fill="none" width="7.3" height="0.9"/><rect x="61.3" y="28.1" fill="none" width="7.3" height="0.9"/><rect x="51.3" y="71.1" fill="none" width="7.3" height="0.9"/><rect x="51.3" y="28.1" fill="none" width="7.3" height="0.9"/><path d="M41.6,43.6c0,0.7,0.2,1.3,0.6,1.7c0.4,0.4,1.1,0.7,1.9,1.1V41c-0.8,0.2-1.4,0.5-1.8,0.9S41.6,42.8,41.6,43.6z"/><path d="M45.9,50.5v6.1c1-0.2,1.7-0.6,2.2-1.2c0.5-0.6,0.8-1.2,0.8-2c0-0.8-0.2-1.4-0.8-1.9C47.6,51.2,46.9,50.8,45.9,50.5z"/><g><path d="M79.8,25.7H19.9c-1.7,0-3,1.3-3,3v42.6c0,1.7,1.3,3,3,3h59.9c1.7,0,3-1.3,3-3v-6.8v-8.4H70.3c-1.7,0-3-1.3-3-3v-6.7   c0-1.7,1.3-3,3-3h12.5V33v-4.3C82.8,27,81.5,25.7,79.8,25.7z M71.3,71.1h7.3v0.9h-7.3V71.1z M41.3,28.1h7.3v0.9h-7.3V28.1z    M31.3,28.1h7.3v0.9h-7.3V28.1z M28.7,72.1h-7.3v-0.9h7.3V72.1z M28.7,29.1h-7.3v-0.9h7.3V29.1z M38.7,72.1h-7.3v-0.9h7.3V72.1z    M48.7,72.1h-7.3v-0.9h7.3V72.1z M49.4,58.4c-1,0.6-2.1,1-3.5,1.1v3.5c0,0.6,0,1-0.1,1.2c-0.1,0.2-0.3,0.4-0.7,0.4   c-0.3,0-0.6-0.1-0.7-0.3c-0.1-0.2-0.2-0.5-0.2-1v-3.8c-1.1-0.1-2.1-0.4-2.9-0.8c-0.8-0.4-1.5-0.9-2.1-1.5c-0.6-0.6-1-1.2-1.2-1.8   c-0.2-0.6-0.4-1.2-0.4-1.9c0-0.4,0.2-0.9,0.5-1.2c0.3-0.3,0.8-0.5,1.3-0.5c0.4,0,0.8,0.1,1.1,0.3c0.3,0.2,0.5,0.5,0.6,0.8   c0.2,0.8,0.5,1.3,0.7,1.8c0.2,0.4,0.5,0.8,0.9,1.1c0.4,0.3,0.9,0.6,1.5,0.8V50c-1.2-0.3-2.3-0.7-3.2-1.2c-0.9-0.4-1.5-1.1-2.1-1.8   c-0.5-0.8-0.8-1.8-0.8-3c0-1.6,0.5-2.9,1.5-4c1-1,2.5-1.6,4.5-1.8v-1.5c0-0.8,0.3-1.2,0.9-1.2c0.6,0,0.9,0.4,0.9,1.2v1.5   c1,0.1,1.9,0.3,2.6,0.6c0.7,0.3,1.3,0.8,1.9,1.4c0.4,0.5,0.8,1,1,1.5c0.2,0.5,0.3,1,0.3,1.4c0,0.5-0.2,0.9-0.5,1.2   c-0.3,0.3-0.8,0.5-1.2,0.5c-0.9,0-1.5-0.5-1.8-1.5c-0.3-1.2-1.1-2-2.3-2.3v5.8c1.2,0.3,2.1,0.6,2.8,0.9c0.7,0.2,1.3,0.6,1.9,1.2   s1,1.2,1.3,1.9c0.3,0.7,0.5,1.5,0.5,2.3c0,1.1-0.2,2.1-0.8,3C51.1,57,50.3,57.7,49.4,58.4z M58.7,72.1h-7.3v-0.9h7.3V72.1z    M58.7,29.1h-7.3v-0.9h7.3V29.1z M68.7,71.1v0.9h-7.3v-0.9H68.7z M68.7,29.1h-7.3v-0.9h7.3V29.1z M78.7,29.1h-7.3v-0.9h7.3V29.1z"/><path d="M68.3,46.9v5.6c0,1.4,1.3,2.5,3,2.5h11.5V44.4H71.3C69.7,44.4,68.3,45.5,68.3,46.9z M75.9,47.1c1.4,0,2.6,1.2,2.6,2.6   s-1.2,2.6-2.6,2.6c-1.4,0-2.6-1.2-2.6-2.6S74.5,47.1,75.9,47.1z"/><circle cx="75.9" cy="49.8" r="0.9"/></g><text x="0" y="115" fill="#000000" font-size="5px" font-weight="bold" font-family="'Helvetica Neue', Helvetica, Arial-Unicode, Arial, Sans-serif">Created by Nimal Raj</text><text x="0" y="120" fill="#000000" font-size="5px" font-weight="bold" font-family="'Helvetica Neue', Helvetica, Arial-Unicode, Arial, Sans-serif">from the Noun Project</text></svg>